<?xml version="1.0" encoding="UTF-8"?>
<svg version="1.1" xmlns="http://www.w3.org/2000/svg" width="1024" height="1024">
<path d="M0 0 C337.92 0 675.84 0 1024 0 C1024 337.92 1024 675.84 1024 1024 C686.08 1024 348.16 1024 0 1024 C0 686.08 0 348.16 0 0 Z " fill="#000000" transform="translate(0,0)"/>
<path d="M0 0 C0.80179688 0.58652344 1.60359375 1.17304688 2.4296875 1.77734375 C3.08710937 2.25042969 3.74453125 2.72351563 4.421875 3.2109375 C11.93125793 9.10163122 16.85406741 16.47046948 18.23828125 25.94140625 C18.30144531 26.54726562 18.36460937 27.153125 18.4296875 27.77734375 C19.0896875 27.77734375 19.7496875 27.77734375 20.4296875 27.77734375 C23.40999904 36.71827837 22.83529254 49.81938782 19.3046875 58.46484375 C18.39502796 60.26116582 17.43780077 62.03436896 16.4296875 63.77734375 C15.96046875 64.65519531 15.49125 65.53304687 15.0078125 66.4375 C8.42932052 78.16207039 -0.85402385 87.57154514 -13.9453125 91.77734375 C-17.53716408 92.68689326 -20.85107059 93.07096811 -24.5703125 92.77734375 C-24.62260513 93.45203705 -24.67489777 94.12673035 -24.72877502 94.8218689 C-25.2696014 101.31199663 -26.12265672 107.66069128 -27.28515625 114.06640625 C-27.54187103 115.50836113 -27.54187103 115.50836113 -27.80377197 116.97944641 C-28.36583388 120.12151681 -28.93607491 123.26202044 -29.5078125 126.40234375 C-29.70428375 127.48871124 -29.900755 128.57507874 -30.10317993 129.69436646 C-44.04468545 206.65195354 -44.04468545 206.65195354 -53.6328125 241.2890625 C-55.10384739 246.76253816 -56.36456211 252.28313251 -57.640625 257.8046875 C-58.56799341 261.80832639 -59.56416365 265.79281623 -60.5703125 269.77734375 C-59.69890625 269.81472656 -58.8275 269.85210937 -57.9296875 269.890625 C-50.8516684 270.28129489 -44.35734044 271.1360248 -37.52734375 273.01953125 C-33.4784062 274.05717178 -29.39634706 274.65933881 -25.26171875 275.25 C-22.5703125 275.77734375 -22.5703125 275.77734375 -20.34765625 276.7109375 C-17.87275402 277.66121642 -15.76486178 278.15042871 -13.171875 278.61328125 C-6.24500959 279.93305028 0.3794696 282.16418368 7.0546875 284.40234375 C7.71688293 284.62321655 8.37907837 284.84408936 9.06134033 285.07165527 C40.63529167 295.66343087 40.63529167 295.66343087 49.3046875 307.71484375 C50.66787664 309.53763983 50.66787664 309.53763983 52.4296875 310.77734375 C55.87054321 311.11303699 59.04936687 310.40147976 62.4296875 309.77734375 C70.03997162 308.97319428 75.24338769 310.14710708 81.4296875 314.77734375 C87.04526628 320.68090093 87.94328405 325.5021356 87.80859375 333.51171875 C87.08696991 339.73107472 83.95717808 343.61128334 79.3671875 347.65234375 C73.57811638 351.84018244 69.49448163 352.41016672 62.4296875 351.77734375 C57.02046599 350.90321355 53.51212932 349.41779483 50.1171875 345.02734375 C47.67012789 341.41186829 45.580214 337.57400887 43.4296875 333.77734375 C42.31400391 334.48697266 42.31400391 334.48697266 41.17578125 335.2109375 C23.07344745 346.1749248 3.2621467 352.10557741 -17.20898438 356.97314453 C-20.43551619 357.74509367 -23.65131647 358.55213053 -26.8671875 359.3671875 C-45.17232524 363.90741009 -65.60101003 368.77734375 -84.5703125 368.77734375 C-84.75037842 370.43926758 -84.75037842 370.43926758 -84.93408203 372.13476562 C-85.56721822 377.18048893 -86.64294964 382.09873729 -87.75 387.05859375 C-87.96343048 388.03034546 -88.17686096 389.00209717 -88.39675903 390.0032959 C-89.07621189 393.09540557 -89.76032826 396.18645511 -90.4453125 399.27734375 C-93.35092873 412.41197884 -96.21192731 425.53168498 -98.5703125 438.77734375 C-97.35807007 439.06061523 -97.35807007 439.06061523 -96.12133789 439.34960938 C-73.48782141 444.706472 -73.48782141 444.706472 -67.5703125 452.77734375 C-67.0078125 456.33984375 -67.0078125 456.33984375 -68.5703125 459.77734375 C-76.88216826 468.83658708 -93.8609109 471.78204461 -105.5703125 472.77734375 C-106.32696091 477.18878099 -106.99684685 481.60953552 -107.64826965 486.03736877 C-108.22600704 489.94476069 -108.82128149 493.84942604 -109.41674805 497.75415039 C-109.72760339 499.81224396 -110.03293891 501.87117878 -110.33276367 503.9309082 C-110.76827318 506.91470793 -111.22395754 509.89483386 -111.68359375 512.875 C-111.87759514 514.2517263 -111.87759514 514.2517263 -112.07551575 515.65626526 C-113.05989736 521.86141422 -114.64173992 525.51815918 -119.7578125 529.46484375 C-125.02067504 531.92084627 -130.74987156 533.15285607 -136.5703125 532.77734375 C-136.58449219 533.35742188 -136.59867188 533.9375 -136.61328125 534.53515625 C-136.90351763 539.28875753 -137.39500058 542.93537075 -140.89453125 546.50390625 C-156.51418503 558.37338674 -181.9880313 555.21227509 -200.51391602 555.09991455 C-203.48910745 555.08656164 -206.46414711 555.09174049 -209.4393549 555.0967741 C-261.28264186 555.16325422 -261.28264186 555.16325422 -271.1875 547.53125 C-273.10935424 545.09364392 -273.95677833 542.56767131 -275.0078125 539.65234375 C-276.4391278 535.77407925 -277.88649068 531.96187286 -279.6328125 528.21484375 C-281.58440743 523.93544282 -283.03295484 519.54547453 -284.4453125 515.0625 C-285.34746447 512.42809095 -286.3203959 509.87833358 -287.3671875 507.30078125 C-290.0306788 500.7118523 -292.42433886 494.02976435 -294.8203125 487.33984375 C-295.28380507 486.06183115 -295.74734645 484.78383625 -296.2109375 483.50585938 C-296.6440625 482.29736328 -297.0771875 481.08886719 -297.5234375 479.84375 C-298.11366699 478.20321655 -298.11366699 478.20321655 -298.71582031 476.52954102 C-299.5703125 473.77734375 -299.5703125 473.77734375 -299.5703125 470.77734375 C-300.46492188 470.61878906 -301.35953125 470.46023438 -302.28125 470.296875 C-311.82080757 468.45608617 -322.62102364 466.18840731 -328.5703125 457.77734375 C-328.8828125 454.83984375 -328.8828125 454.83984375 -327.5703125 451.77734375 C-322.86871359 447.1097323 -316.34351848 442.77734375 -309.5703125 442.77734375 C-311.04700764 438.17238041 -312.52676647 433.56840901 -314.0078125 428.96484375 C-314.34170486 427.92615646 -314.34170486 427.92615646 -314.68234253 426.8664856 C-317.14740662 419.20273893 -319.63165463 411.5467562 -322.203125 403.91796875 C-322.81716187 402.09422729 -322.81716187 402.09422729 -323.44360352 400.23364258 C-324.22125577 397.9326157 -325.00283427 395.63291103 -325.78881836 393.3347168 C-326.14081299 392.29355713 -326.49280762 391.25239746 -326.85546875 390.1796875 C-327.16363525 389.27726318 -327.47180176 388.37483887 -327.78930664 387.44506836 C-328.63019314 384.57280617 -329.13379806 381.73582105 -329.5703125 378.77734375 C-331.2203125 378.77734375 -332.8703125 378.77734375 -334.5703125 378.77734375 C-334.71400269 379.95176025 -334.71400269 379.95176025 -334.8605957 381.14990234 C-336.13204645 390.80184179 -338.0701501 400.22527171 -340.1678772 409.72558594 C-341.18859348 414.35695869 -342.18849252 418.99280964 -343.1875 423.62890625 C-343.38960587 424.56663879 -343.59171173 425.50437134 -343.79994202 426.47052002 C-348.22080267 447.06205117 -352.33668961 467.72411651 -355.3293457 488.57617188 C-355.94560222 492.86505733 -356.60028875 497.08952435 -357.59375 501.30859375 C-358.35493652 504.56868747 -358.86023303 507.78359473 -359.24609375 511.109375 C-359.35244141 512.00978516 -359.45878906 512.91019531 -359.56835938 513.83789062 C-359.78005259 515.69053496 -359.97771389 517.54483051 -360.16210938 519.40039062 C-360.99474275 526.15397244 -360.99474275 526.15397244 -363.875 529.2734375 C-370.77911458 533.12573332 -376.60550496 535.36732949 -384.5703125 534.77734375 C-384.57289063 535.51339844 -384.57546875 536.24945312 -384.578125 537.0078125 C-384.89347477 544.96513848 -384.89347477 544.96513848 -388.0703125 548.77734375 C-394.49493775 553.03525107 -402.56039656 554.39361569 -410.05859375 555.44921875 C-410.95741776 555.57576843 -411.85624176 555.70231812 -412.78230286 555.83270264 C-423.01686926 557.14052182 -433.22551256 557.15865659 -443.52807617 557.05859375 C-446.76558054 557.02726859 -450.00259272 557.01758006 -453.24023438 557.01171875 C-462.7044972 556.97700032 -472.15708611 556.84216168 -481.609375 556.34375 C-482.30391281 556.30811951 -482.99845062 556.27248901 -483.71403503 556.23577881 C-493.08741755 555.66957098 -504.05603863 554.86032736 -511.5703125 548.77734375 C-513.08750277 544.34663817 -512.26811418 540.10936211 -511.57421875 535.58984375 C-511.46182358 534.80971924 -511.34942841 534.02959473 -511.23362732 533.22583008 C-510.87458884 530.74177267 -510.5043738 528.25955622 -510.1328125 525.77734375 C-509.76651885 523.29492764 -509.4026692 520.81219999 -509.04270935 518.32885742 C-508.81864244 516.78675631 -508.59068458 515.24521407 -508.35829163 513.7043457 C-507.81935026 510.03131884 -507.43851882 506.4912805 -507.5703125 502.77734375 C-506.9103125 502.77734375 -506.2503125 502.77734375 -505.5703125 502.77734375 C-505.62058594 501.75511719 -505.67085938 500.73289062 -505.72265625 499.6796875 C-505.7212132 493.13258739 -504.32031218 486.75495908 -503.1328125 480.33984375 C-502.90271484 479.04884766 -502.67261719 477.75785156 -502.43554688 476.42773438 C-500.70718207 466.91421332 -500.70718207 466.91421332 -499.5703125 465.77734375 C-499.29883919 464.43779089 -499.08037626 463.08737035 -498.88671875 461.734375 C-498.76361328 460.90744141 -498.64050781 460.08050781 -498.51367188 459.22851562 C-498.26260686 457.48908568 -498.01258238 455.74950518 -497.76367188 454.00976562 C-497.07370727 449.38736029 -496.12531061 445.2011547 -494.5703125 440.77734375 C-494.2386436 438.9926492 -493.94770047 437.19996418 -493.6953125 435.40234375 C-492.87178175 430.20969948 -491.7053655 425.19172042 -490.38330078 420.10571289 C-488.41511809 412.3947869 -486.75470635 404.61640354 -485.0703125 396.83984375 C-482.67585826 385.79306375 -480.23398591 374.76292851 -477.5703125 363.77734375 C-478.88128906 363.63039063 -478.88128906 363.63039063 -480.21875 363.48046875 C-510.8327768 359.75800847 -558.17618726 352.34295992 -579.5703125 327.77734375 C-582.56742382 323.38443487 -584.57919088 319.15802843 -583.5703125 313.77734375 C-578.14949841 301.88033583 -565.60746451 294.82234312 -553.83203125 290.26171875 C-550.42657009 289.04731155 -547.0036852 287.90979652 -543.5703125 286.77734375 C-542.30795983 286.3059334 -541.04763732 285.82906191 -539.7890625 285.34765625 C-512.40500852 275.00438247 -483.46815755 270.53022314 -454.5703125 266.77734375 C-454.20679688 265.08931641 -454.20679688 265.08931641 -453.8359375 263.3671875 C-452.25095323 256.0824943 -450.63515251 248.83624935 -448.6328125 241.65234375 C-446.03915662 232.13889505 -444.15459742 222.4812792 -442.19384766 212.82128906 C-441.62848375 210.06132151 -441.04761656 207.30544362 -440.45703125 204.55078125 C-436.16318835 184.45245873 -432.39345455 164.24676201 -428.57299805 144.05419922 C-427.96008833 140.81666686 -427.33820849 137.58125252 -426.70239258 134.34814453 C-424.77425184 124.46981395 -423.44278669 114.58408855 -422.26538086 104.59570312 C-422.02713488 102.59052574 -421.78123785 100.58626211 -421.53515625 98.58203125 C-421.397146 97.41655762 -421.25913574 96.25108398 -421.11694336 95.05029297 C-420.31060728 90.2223602 -419.7262142 86.78398487 -415.96875 83.51171875 C-412.02644681 81.49978471 -408.53336608 80.69413318 -404.1953125 80.02734375 C-403.45925781 79.90230469 -402.72320312 79.77726562 -401.96484375 79.6484375 C-400.16879135 79.34520787 -398.36980379 79.05944927 -396.5703125 78.77734375 C-396.44076172 77.54757812 -396.44076172 77.54757812 -396.30859375 76.29296875 C-395.16771859 67.54277031 -395.16771859 67.54277031 -392.5703125 64.21484375 C-382.72271605 59.49620378 -372.61577296 58.62456796 -361.8515625 58.609375 C-360.92822617 58.60509491 -360.00488983 58.60081482 -359.05357361 58.59640503 C-356.05910388 58.5864184 -353.06479575 58.58635468 -350.0703125 58.58984375 C-348.53348312 58.59124863 -348.53348312 58.59124863 -346.96560669 58.59268188 C-274.74930499 58.73564263 -274.74930499 58.73564263 -258.5703125 73.77734375 C-257.02001953 76.52294922 -257.02001953 76.52294922 -255.703125 79.76953125 C-255.4565213 80.37376923 -255.2099176 80.9780072 -254.95584106 81.60055542 C-251.48646949 90.25485054 -248.48122301 99.08944049 -245.4453125 107.90234375 C-244.7835419 109.81424174 -244.12167508 111.72610644 -243.4597168 113.63793945 C-241.4862307 119.34754024 -239.52680711 125.06190243 -237.5703125 130.77734375 C-237.28806824 131.60002747 -237.00582397 132.42271118 -236.71502686 133.27032471 C-226.39659042 163.35356621 -216.74850234 193.71043703 -208.79956055 224.51416016 C-207.01858072 231.37692473 -204.88348691 238.07559605 -202.5703125 244.77734375 C-202.42408447 244.05554932 -202.27785645 243.33375488 -202.12719727 242.59008789 C-201.46632306 239.33919496 -200.79964804 236.08951886 -200.1328125 232.83984375 C-199.78766602 231.13538086 -199.78766602 231.13538086 -199.43554688 229.39648438 C-199.10200195 227.77709961 -199.10200195 227.77709961 -198.76171875 226.125 C-198.55748291 225.12476807 -198.35324707 224.12453613 -198.14282227 223.09399414 C-197.5703125 220.77734375 -197.5703125 220.77734375 -196.5703125 219.77734375 C-196.02675895 216.58453759 -195.60440264 213.38094774 -195.16796875 210.171875 C-194.5703125 206.77734375 -194.5703125 206.77734375 -193.6484375 204.05859375 C-192.07849651 199.28051247 -191.2124004 194.39770623 -190.2578125 189.46484375 C-189.82057155 187.23562626 -189.3830633 185.00646118 -188.9453125 182.77734375 C-188.60886719 181.05644531 -188.60886719 181.05644531 -188.265625 179.30078125 C-187.56869611 175.76915284 -186.85384329 172.2416248 -186.1328125 168.71484375 C-185.78730347 167.01775269 -185.78730347 167.01775269 -185.43481445 165.28637695 C-184.99066848 163.10729079 -184.54397703 160.92872158 -184.09448242 158.75073242 C-183.89443604 157.76306885 -183.69438965 156.77540527 -183.48828125 155.7578125 C-183.31063232 154.89051514 -183.1329834 154.02321777 -182.94995117 153.12963867 C-182.46409311 150.51631558 -182.46409311 150.51631558 -182.5703125 146.77734375 C-183.5603125 147.10734375 -184.5503125 147.43734375 -185.5703125 147.77734375 C-190.83355773 148.48208337 -194.36645498 148.69227547 -198.6953125 145.40234375 C-201.48473767 141.20824376 -201.53385432 136.60308234 -200.5703125 131.77734375 C-198.6953125 128.65234375 -198.6953125 128.65234375 -195.5703125 126.77734375 C-192.19243648 126.39056405 -188.95251888 126.48181115 -185.5703125 126.77734375 C-185.5703125 127.43734375 -185.5703125 128.09734375 -185.5703125 128.77734375 C-184.7865625 129.08671875 -184.0028125 129.39609375 -183.1953125 129.71484375 C-180.5703125 130.77734375 -180.5703125 130.77734375 -178.5703125 131.77734375 C-178.52422852 131.09019287 -178.47814453 130.40304199 -178.43066406 129.69506836 C-177.84671475 121.84743843 -176.87722151 114.09952441 -175.63330078 106.3293457 C-175.42288622 104.99185093 -175.22152805 103.652903 -175.02880859 102.31274414 C-174.74490609 100.34093391 -174.43138776 98.37345981 -174.1171875 96.40625 C-173.94026367 95.2519751 -173.76333984 94.0977002 -173.58105469 92.90844727 C-172.34020438 89.06450881 -170.64683774 87.34554338 -167.5703125 84.77734375 C-164.4140625 83.4140625 -164.4140625 83.4140625 -161.0703125 82.46484375 C-159.966875 82.13871094 -158.8634375 81.81257813 -157.7265625 81.4765625 C-154.87342065 80.84449271 -152.47551356 80.63099967 -149.5703125 80.77734375 C-149.9003125 78.79734375 -150.2303125 76.81734375 -150.5703125 74.77734375 C-151.10140625 74.93460937 -151.6325 75.091875 -152.1796875 75.25390625 C-158.81069027 76.70579248 -166.2502216 77.12975943 -172.1953125 73.52734375 C-174.79846532 71.58870885 -176.98352415 69.65339763 -178.5703125 66.77734375 C-178.5703125 66.11734375 -178.5703125 65.45734375 -178.5703125 64.77734375 C-179.2303125 64.77734375 -179.8903125 64.77734375 -180.5703125 64.77734375 C-183.04771966 58.7386638 -183.90738264 53.1176897 -181.44921875 46.9765625 C-180.22662323 44.52790801 -178.95128434 42.139792 -177.5703125 39.77734375 C-176.9103125 39.77734375 -176.2503125 39.77734375 -175.5703125 39.77734375 C-175.5703125 39.11734375 -175.5703125 38.45734375 -175.5703125 37.77734375 C-170.59120887 33.33171551 -165.18760179 33.374598 -158.75 33.4296875 C-152.44753585 34.11877756 -147.46378132 36.83653821 -143.0703125 41.33984375 C-140.37389891 45.72151584 -139.2938565 48.46994161 -139.3203125 53.71484375 C-139.31515625 54.73449219 -139.31 55.75414062 -139.3046875 56.8046875 C-139.57507715 59.83066579 -140.29790114 62.03560022 -141.5703125 64.77734375 C-140.47074219 64.30554688 -139.37117188 63.83375 -138.23828125 63.34765625 C-133.1712053 61.45846386 -128.24820335 61.02110222 -122.8828125 60.65234375 C-121.86638672 60.5745166 -120.84996094 60.49668945 -119.80273438 60.41650391 C-106.74548342 59.47907033 -93.65428242 59.12180614 -80.5703125 58.77734375 C-80.71033691 58.12942871 -80.85036133 57.48151367 -80.99462891 56.81396484 C-83.53477717 44.67919822 -82.96247856 35.39256414 -78.5703125 23.77734375 C-78.2815625 22.56046875 -77.9928125 21.34359375 -77.6953125 20.08984375 C-74.29282117 10.07139705 -66.18615879 1.80244687 -57.24609375 -3.63671875 C-55.04925662 -4.67006045 -52.87889898 -5.47424657 -50.5703125 -6.22265625 C-49.78785156 -6.51785156 -49.00539063 -6.81304687 -48.19921875 -7.1171875 C-31.7708051 -12.59332538 -14.13709138 -9.69107859 0 0 Z " fill="#881010" transform="translate(766.5703125,214.22265625)"/>
<path d="M0 0 C-0.56673723 6.32226869 -1.66599799 12.14569987 -3.375 18.25 C-3.82578666 19.90712636 -4.27499832 21.56468195 -4.72265625 23.22265625 C-4.94066895 24.02848145 -5.15868164 24.83430664 -5.38330078 25.66455078 C-6.72463283 30.74419541 -7.86723093 35.8703059 -9 41 C-10.29292969 41.18175781 -11.58585937 41.36351562 -12.91796875 41.55078125 C-31.13755017 43.53909232 -31.13755017 43.53909232 -48 50 C-48 50.99 -48 51.98 -48 53 C-41.07693238 56.54792084 -34.33407152 58.23007469 -26.6875 59.5 C-25.43662598 59.70866699 -24.18575195 59.91733398 -22.89697266 60.13232422 C5.79566944 64.73801334 34.95276703 66.20128404 63.9375 67.6875 C65.11532043 67.74834778 66.29314087 67.80919556 67.50665283 67.87188721 C107.10627184 69.88177097 146.6683744 70.20810865 186.3125 70.1875 C187.59421711 70.18708584 188.87593422 70.18667168 190.19649124 70.18624496 C241.68807648 70.16542662 292.94040927 69.38628373 344.32387161 65.84121323 C346.4992731 65.69184141 348.67488618 65.54595558 350.85055542 65.40054321 C365.89701737 64.38268921 380.81835996 62.94313592 395.71484375 60.58203125 C396.95947891 60.3876799 398.20411407 60.19332855 399.48646545 59.99308777 C408.06353364 58.55721387 417.15794761 56.92102619 425 53 C425 52.01 425 51.02 425 50 C423.29204966 49.37395415 421.58362002 48.74921585 419.875 48.125 C418.92367187 47.77695312 417.97234375 47.42890625 416.9921875 47.0703125 C415.51105469 46.54050781 415.51105469 46.54050781 414 46 C413.1440625 45.6596875 412.288125 45.319375 411.40625 44.96875 C406.22800015 43.49603674 400.96380422 42.99125773 395.625 42.375 C394.50738281 42.2409375 393.38976562 42.106875 392.23828125 41.96875 C389.49280212 41.64023113 386.74677171 41.31749805 384 41 C384.64784186 35.05349367 385.71983435 29.32612517 387.0625 23.5 C387.24876953 22.67757813 387.43503906 21.85515625 387.62695312 21.0078125 C388.08120885 19.0044283 388.54011599 17.0020997 389 15 C389.66 15 390.32 15 391 15 C391.04898438 14.22914063 391.09796875 13.45828125 391.1484375 12.6640625 C391.22320313 11.66117187 391.29796875 10.65828125 391.375 9.625 C391.47941406 8.12839844 391.47941406 8.12839844 391.5859375 6.6015625 C392 4 392 4 394 2 C401.88713714 1.77185967 409.47575558 3.15537905 417.04296875 5.2421875 C421.0919063 6.27982803 425.17396544 6.88199506 429.30859375 7.47265625 C432 8 432 8 434.22265625 8.93359375 C436.69755848 9.88387267 438.80545072 10.37308496 441.3984375 10.8359375 C448.32530291 12.15570653 454.9497821 14.38683993 461.625 16.625 C462.61829315 16.9563092 462.61829315 16.9563092 463.63165283 17.29431152 C495.20560417 27.88608712 495.20560417 27.88608712 503.875 39.9375 C505.23818914 41.76029608 505.23818914 41.76029608 507 43 C510.44085571 43.33569324 513.61967937 42.62413601 517 42 C524.61028412 41.19585053 529.81370019 42.36976333 536 47 C541.61557878 52.90355718 542.51359655 57.72479185 542.37890625 65.734375 C541.65728241 71.95373097 538.52749058 75.83393959 533.9375 79.875 C528.14842888 84.06283869 524.06479413 84.63282297 517 84 C511.59077849 83.1258698 508.08244182 81.64045108 504.6875 77.25 C502.24044039 73.63452454 500.1505265 69.79666512 498 66 C496.88431641 66.70962891 496.88431641 66.70962891 495.74609375 67.43359375 C477.64375995 78.39758105 457.8324592 84.32823366 437.36132812 89.19580078 C434.13479631 89.96774992 430.91899603 90.77478678 427.703125 91.58984375 C409.39798726 96.13006634 388.96930247 101 370 101 C369.81993408 102.66192383 369.81993408 102.66192383 369.63623047 104.35742188 C369.00309428 109.40314518 367.92736286 114.32139354 366.8203125 119.28125 C366.60688202 120.25300171 366.39345154 121.22475342 366.17355347 122.22595215 C365.49410061 125.31806182 364.80998424 128.40911136 364.125 131.5 C361.21938377 144.63463509 358.35838519 157.75434123 356 171 C357.21224243 171.28327148 357.21224243 171.28327148 358.44897461 171.57226562 C381.08249109 176.92912825 381.08249109 176.92912825 387 185 C387.5625 188.5625 387.5625 188.5625 386 192 C377.68814424 201.05924333 360.7094016 204.00470086 349 205 C348.24335159 209.41143724 347.57346565 213.83219177 346.92204285 218.26002502 C346.34430546 222.16741694 345.74903101 226.07208229 345.15356445 229.97680664 C344.84270911 232.03490021 344.53737359 234.09383503 344.23754883 236.15356445 C343.80203932 239.13736418 343.34635496 242.11749011 342.88671875 245.09765625 C342.69271736 246.47438255 342.69271736 246.47438255 342.49479675 247.87892151 C341.51041514 254.08407047 339.92857258 257.74081543 334.8125 261.6875 C329.54963746 264.14350252 323.82044094 265.37551232 318 265 C317.98582031 265.58007812 317.97164062 266.16015625 317.95703125 266.7578125 C317.66679487 271.51141378 317.17531192 275.158027 313.67578125 278.7265625 C298.05612747 290.59604299 272.5822812 287.43493134 254.05639648 287.3225708 C251.08120505 287.30921789 248.10616539 287.31439674 245.1309576 287.31943035 C193.28767064 287.38591047 193.28767064 287.38591047 183.3828125 279.75390625 C181.46095826 277.31630017 180.61353417 274.79032756 179.5625 271.875 C178.1311847 267.9967355 176.68382182 264.18452911 174.9375 260.4375 C172.98590507 256.15809907 171.53735766 251.76813078 170.125 247.28515625 C169.22284803 244.6507472 168.2499166 242.10098983 167.203125 239.5234375 C164.5396337 232.93450855 162.14597364 226.2524206 159.75 219.5625 C159.28650743 218.2844874 158.82296605 217.0064925 158.359375 215.72851562 C157.92625 214.52001953 157.493125 213.31152344 157.046875 212.06640625 C156.45664551 210.4258728 156.45664551 210.4258728 155.85449219 208.75219727 C155 206 155 206 155 203 C154.10539062 202.84144531 153.21078125 202.68289063 152.2890625 202.51953125 C142.74950493 200.67874242 131.94928886 198.41106356 126 190 C125.6875 187.0625 125.6875 187.0625 127 184 C131.70159891 179.33238855 138.22679402 175 145 175 C143.52330486 170.39503666 142.04354603 165.79106526 140.5625 161.1875 C140.33990509 160.49504181 140.11731018 159.80258362 139.88796997 159.08914185 C137.42290588 151.42539518 134.93865787 143.76941245 132.3671875 136.140625 C131.75315063 134.31688354 131.75315063 134.31688354 131.12670898 132.45629883 C130.34905673 130.15527195 129.56747823 127.85556728 128.78149414 125.55737305 C128.2535022 123.99563354 128.2535022 123.99563354 127.71484375 122.40234375 C127.40667725 121.49991943 127.09851074 120.59749512 126.78100586 119.66772461 C125.94011936 116.79546242 125.43651444 113.9584773 125 111 C123.35 111 121.7 111 120 111 C119.90420654 111.78294434 119.80841309 112.56588867 119.7097168 113.37255859 C118.43826605 123.02449804 116.5001624 132.44792796 114.4024353 141.94824219 C113.38171902 146.57961494 112.38181998 151.21546589 111.3828125 155.8515625 C111.18070663 156.78929504 110.97860077 157.72702759 110.77037048 158.69317627 C106.34950983 179.28470742 102.23362289 199.94677276 99.2409668 220.79882812 C98.62471028 225.08771358 97.97002375 229.3121806 96.9765625 233.53125 C96.21537598 236.79134372 95.71007947 240.00625098 95.32421875 243.33203125 C95.16469727 244.68264648 95.16469727 244.68264648 95.00195312 246.06054688 C94.79025991 247.91319121 94.59259861 249.76748676 94.40820312 251.62304688 C93.57556975 258.37662869 93.57556975 258.37662869 90.6953125 261.49609375 C83.79119792 265.34838957 77.96480754 267.58998574 70 267 C69.99742187 267.73605469 69.99484375 268.47210937 69.9921875 269.23046875 C69.67683773 277.18779473 69.67683773 277.18779473 66.5 281 C60.07537475 285.25790732 52.00991594 286.61627194 44.51171875 287.671875 C43.61289474 287.79842468 42.71407074 287.92497437 41.78800964 288.05535889 C31.55344324 289.36317807 21.34479994 289.38131284 11.04223633 289.28125 C7.80473196 289.24992484 4.56771978 289.24023631 1.33007812 289.234375 C-8.1341847 289.19965657 -17.58677361 289.06481793 -27.0390625 288.56640625 C-27.73360031 288.53077576 -28.42813812 288.49514526 -29.14372253 288.45843506 C-38.51710505 287.89222723 -49.48572613 287.08298361 -57 281 C-58.51719027 276.56929442 -57.69780168 272.33201836 -57.00390625 267.8125 C-56.89151108 267.03237549 -56.77911591 266.25225098 -56.66331482 265.44848633 C-56.30427634 262.96442892 -55.9340613 260.48221247 -55.5625 258 C-55.19620635 255.51758389 -54.8323567 253.03485624 -54.47239685 250.55151367 C-54.24832994 249.00941256 -54.02037208 247.46787032 -53.78797913 245.92700195 C-53.24903776 242.25397509 -52.86820632 238.71393675 -53 235 C-52.34 235 -51.68 235 -51 235 C-51.05027344 233.97777344 -51.10054688 232.95554687 -51.15234375 231.90234375 C-51.1509007 225.35524364 -49.74999968 218.97761533 -48.5625 212.5625 C-48.33240234 211.27150391 -48.10230469 209.98050781 -47.86523438 208.65039062 C-46.13686957 199.13686957 -46.13686957 199.13686957 -45 198 C-44.72852669 196.66044714 -44.51006376 195.3100266 -44.31640625 193.95703125 C-44.19330078 193.13009766 -44.07019531 192.30316406 -43.94335938 191.45117188 C-43.69229436 189.71174193 -43.44226988 187.97216143 -43.19335938 186.23242188 C-42.50339477 181.61001654 -41.55499811 177.42381095 -40 173 C-39.6683311 171.21530545 -39.37738797 169.42262043 -39.125 167.625 C-38.30146925 162.43235573 -37.135053 157.41437667 -35.81298828 152.32836914 C-33.84480559 144.61744315 -32.18439385 136.83905979 -30.5 129.0625 C-28.10554576 118.01572 -25.66367341 106.98558476 -23 96 C-23.87398438 95.90203125 -24.74796875 95.8040625 -25.6484375 95.703125 C-56.2624643 91.98066472 -103.60587476 84.56561617 -125 60 C-127.99711132 55.60709112 -130.00887838 51.38068468 -129 46 C-123.57918591 34.10299208 -111.03715201 27.04499937 -99.26171875 22.484375 C-95.85625759 21.2699678 -92.4333727 20.13245277 -89 19 C-87.73764733 18.52858965 -86.47732482 18.05171816 -85.21875 17.5703125 C-63.10730182 9.21856289 -39.92055137 4.73326018 -16.625 1.125 C-15.85389893 1.00479492 -15.08279785 0.88458984 -14.28833008 0.76074219 C-9.48146732 0.06737759 -4.85645531 -0.09866388 0 0 Z " fill="#640F87" transform="translate(312,482)"/>
<path d="M0 0 C-1.59923298 10.86868137 -4.03791546 21.53643003 -6.4375 32.25 C-9.1712748 44.46700741 -11.79416688 56.67513823 -14 69 C-13.19183838 69.18884766 -12.38367676 69.37769531 -11.55102539 69.57226562 C11.08249109 74.92912825 11.08249109 74.92912825 17 83 C17.5625 86.5625 17.5625 86.5625 16 90 C7.68814424 99.05924333 -9.2905984 102.00470086 -21 103 C-21.75664841 107.41143724 -22.42653435 111.83219177 -23.07795715 116.26002502 C-23.65569454 120.16741694 -24.25096899 124.07208229 -24.84643555 127.97680664 C-25.15729089 130.03490021 -25.46262641 132.09383503 -25.76245117 134.15356445 C-26.19796068 137.13736418 -26.65364504 140.11749011 -27.11328125 143.09765625 C-27.24261551 144.01547379 -27.37194977 144.93329132 -27.50520325 145.87892151 C-28.48958486 152.08407047 -30.07142742 155.74081543 -35.1875 159.6875 C-40.45036254 162.14350252 -46.17955906 163.37551232 -52 163 C-52.01417969 163.58007812 -52.02835938 164.16015625 -52.04296875 164.7578125 C-52.33320513 169.51141378 -52.82468808 173.158027 -56.32421875 176.7265625 C-71.94387253 188.59604299 -97.4177188 185.43493134 -115.94360352 185.3225708 C-118.91879495 185.30921789 -121.89383461 185.31439674 -124.8690424 185.31943035 C-176.71232936 185.38591047 -176.71232936 185.38591047 -186.6171875 177.75390625 C-188.53904174 175.31630017 -189.38646583 172.79032756 -190.4375 169.875 C-191.8688153 165.9967355 -193.31617818 162.18452911 -195.0625 158.4375 C-197.01409493 154.15809907 -198.46264234 149.76813078 -199.875 145.28515625 C-200.77715197 142.6507472 -201.7500834 140.10098983 -202.796875 137.5234375 C-205.4603663 130.93450855 -207.85402636 124.2524206 -210.25 117.5625 C-210.71349257 116.2844874 -211.17703395 115.0064925 -211.640625 113.72851562 C-212.07375 112.52001953 -212.506875 111.31152344 -212.953125 110.06640625 C-213.34661133 108.97271729 -213.74009766 107.87902832 -214.14550781 106.75219727 C-215 104 -215 104 -215 101 C-215.89460938 100.84144531 -216.78921875 100.68289063 -217.7109375 100.51953125 C-227.25049507 98.67874242 -238.05071114 96.41106356 -244 88 C-244.3125 85.0625 -244.3125 85.0625 -243 82 C-238.29840109 77.33238855 -231.77320598 73 -225 73 C-226.47669514 68.39503666 -227.95645397 63.79106526 -229.4375 59.1875 C-229.66009491 58.49504181 -229.88268982 57.80258362 -230.11203003 57.08914185 C-232.57709412 49.42539518 -235.06134213 41.76941245 -237.6328125 34.140625 C-238.04217041 32.92479736 -238.45152832 31.70896973 -238.87329102 30.45629883 C-239.65094327 28.15527195 -240.43252177 25.85556728 -241.21850586 23.55737305 C-241.57050049 22.51621338 -241.92249512 21.47505371 -242.28515625 20.40234375 C-242.59332275 19.49991943 -242.90148926 18.59749512 -243.21899414 17.66772461 C-244.05996417 14.79517708 -244.52968575 11.95337756 -245 9 C-243.77702209 9.00222061 -242.55404419 9.00444122 -241.29400635 9.00672913 C-229.5911709 9.02727775 -217.88833925 9.04212128 -206.18548965 9.05181217 C-200.17345663 9.05696228 -194.16143851 9.06391062 -188.14941406 9.07543945 C-154.21971744 9.15387543 -154.21971744 9.15387543 -120.296875 8.55859375 C-119.21322033 8.52929622 -119.21322033 8.52929622 -118.10767365 8.49940681 C-110.82598468 8.29517624 -103.59196556 7.96804513 -96.34454346 7.2197113 C-93.11106797 6.91669661 -89.88092726 6.81323438 -86.63598633 6.70947266 C-63.32856616 5.9625645 -40.03608945 3.59925232 -16.88012695 0.91455078 C-11.20768499 0.27059356 -5.70917464 -0.144973 0 0 Z " fill="#880F10" transform="translate(682,584)"/>
<path d="M0 0 C7.71885332 0.53524895 15.42340372 1.19690615 23.125 1.9375 C23.93485352 2.01210449 24.74470703 2.08670898 25.57910156 2.16357422 C29.81266767 2.57978126 33.95933114 3.15183442 38.13647461 3.96118164 C43.67670891 4.98258421 49.20522223 5.65784927 54.80859375 6.21875 C55.80507431 6.32161316 56.80155487 6.42447632 57.82823181 6.53045654 C61.03080709 6.85895453 64.23404411 7.18021114 67.4375 7.5 C68.53402893 7.61049683 69.63055786 7.72099365 70.76031494 7.83483887 C96.4937506 10.4227057 122.14233896 12.2365597 148 13 C148 13.33 148 13.66 148 14 C146.35 14 144.7 14 143 14 C142.90420654 14.78294434 142.80841309 15.56588867 142.7097168 16.37255859 C141.43826605 26.02449804 139.5001624 35.44792796 137.4024353 44.94824219 C136.38171902 49.57961494 135.38181998 54.21546589 134.3828125 58.8515625 C134.18070663 59.78929504 133.97860077 60.72702759 133.77037048 61.69317627 C129.34950983 82.28470742 125.23362289 102.94677276 122.2409668 123.79882812 C121.62471028 128.08771358 120.97002375 132.3121806 119.9765625 136.53125 C119.21537598 139.79134372 118.71007947 143.00625098 118.32421875 146.33203125 C118.16469727 147.68264648 118.16469727 147.68264648 118.00195312 149.06054688 C117.79025991 150.91319121 117.59259861 152.76748676 117.40820312 154.62304688 C116.57556975 161.37662869 116.57556975 161.37662869 113.6953125 164.49609375 C106.79119792 168.34838957 100.96480754 170.58998574 93 170 C92.99742187 170.73605469 92.99484375 171.47210937 92.9921875 172.23046875 C92.67683773 180.18779473 92.67683773 180.18779473 89.5 184 C83.07537475 188.25790732 75.00991594 189.61627194 67.51171875 190.671875 C66.61289474 190.79842468 65.71407074 190.92497437 64.78800964 191.05535889 C54.55344324 192.36317807 44.34479994 192.38131284 34.04223633 192.28125 C30.80473196 192.24992484 27.56771978 192.24023631 24.33007812 192.234375 C14.8658153 192.19965657 5.41322639 192.06481793 -4.0390625 191.56640625 C-5.08086922 191.51296051 -5.08086922 191.51296051 -6.14372253 191.45843506 C-15.51710505 190.89222723 -26.48572613 190.08298361 -34 184 C-35.51719027 179.56929442 -34.69780168 175.33201836 -34.00390625 170.8125 C-33.89151108 170.03237549 -33.77911591 169.25225098 -33.66331482 168.44848633 C-33.30427634 165.96442892 -32.9340613 163.48221247 -32.5625 161 C-32.19620635 158.51758389 -31.8323567 156.03485624 -31.47239685 153.55151367 C-31.24832994 152.00941256 -31.02037208 150.46787032 -30.78797913 148.92700195 C-30.24903776 145.25397509 -29.86820632 141.71393675 -30 138 C-29.34 138 -28.68 138 -28 138 C-28.05027344 136.97777344 -28.10054688 135.95554687 -28.15234375 134.90234375 C-28.1509007 128.35524364 -26.74999968 121.97761533 -25.5625 115.5625 C-25.33240234 114.27150391 -25.10230469 112.98050781 -24.86523438 111.65039062 C-23.13686957 102.13686957 -23.13686957 102.13686957 -22 101 C-21.72852669 99.66044714 -21.51006376 98.3100266 -21.31640625 96.95703125 C-21.19330078 96.13009766 -21.07019531 95.30316406 -20.94335938 94.45117188 C-20.69229436 92.71174193 -20.44226988 90.97216143 -20.19335938 89.23242188 C-19.50339477 84.61001654 -18.55499811 80.42381095 -17 76 C-16.6683311 74.21530545 -16.37738797 72.42262043 -16.125 70.625 C-15.3015848 65.43308431 -14.13629939 60.41554782 -12.81298828 55.33056641 C-10.83808091 47.59950493 -9.18479867 39.79804538 -7.5 32 C-5.18271223 21.28462022 -2.80696376 10.60021097 0 0 Z " fill="#880F10" transform="translate(289,579)"/>
<path d="M0 0 C26.52703399 5.02136972 26.52703399 5.02136972 33 14 C33.375 17.4375 33.375 17.4375 32 21 C23.77889515 30.07935206 6.64656775 33.01004174 -5 34 C-5.75664841 38.41143724 -6.42653435 42.83219177 -7.07795715 47.26002502 C-7.65569454 51.16741694 -8.25096899 55.07208229 -8.84643555 58.97680664 C-9.15729089 61.03490021 -9.46262641 63.09383503 -9.76245117 65.15356445 C-10.19796068 68.13736418 -10.65364504 71.11749011 -11.11328125 74.09765625 C-11.24261551 75.01547379 -11.37194977 75.93329132 -11.50520325 76.87892151 C-12.48958486 83.08407047 -14.07142742 86.74081543 -19.1875 90.6875 C-24.45036254 93.14350252 -30.17955906 94.37551232 -36 94 C-36.01417969 94.58007812 -36.02835938 95.16015625 -36.04296875 95.7578125 C-36.33320513 100.51141378 -36.82468808 104.158027 -40.32421875 107.7265625 C-55.94387253 119.59604299 -81.4177188 116.43493134 -99.94360352 116.3225708 C-102.91879495 116.30921789 -105.89383461 116.31439674 -108.8690424 116.31943035 C-160.71232936 116.38591047 -160.71232936 116.38591047 -170.6171875 108.75390625 C-172.53904174 106.31630017 -173.38646583 103.79032756 -174.4375 100.875 C-175.8688153 96.9967355 -177.31617818 93.18452911 -179.0625 89.4375 C-181.01409493 85.15809907 -182.46264234 80.76813078 -183.875 76.28515625 C-184.77715197 73.6507472 -185.7500834 71.10098983 -186.796875 68.5234375 C-189.4603663 61.93450855 -191.85402636 55.2524206 -194.25 48.5625 C-194.71349257 47.2844874 -195.17703395 46.0064925 -195.640625 44.72851562 C-196.07375 43.52001953 -196.506875 42.31152344 -196.953125 41.06640625 C-197.34661133 39.97271729 -197.74009766 38.87902832 -198.14550781 37.75219727 C-199 35 -199 35 -199 32 C-199.89460938 31.84144531 -200.78921875 31.68289063 -201.7109375 31.51953125 C-211.25049507 29.67874242 -222.05071114 27.41106356 -228 19 C-228.3125 16.0625 -228.3125 16.0625 -227 13 C-221.83288368 7.87023633 -215.35605831 4 -208 4 C-206.4296875 6.265625 -206.4296875 6.265625 -204.875 9.25 C-201.82857379 14.31005548 -199.48964601 16.4655737 -193.91796875 18.31640625 C-186.00124014 20.17106155 -178.23215211 21.41143681 -170.125 22.0625 C-168.79855469 22.17948242 -168.79855469 22.17948242 -167.4453125 22.29882812 C-164.29848753 22.56324883 -161.15068133 22.78624151 -158 23 C-156.09250977 23.13571411 -156.09250977 23.13571411 -154.14648438 23.27416992 C-137.6193799 24.33099308 -121.0496303 24.18732132 -104.49658203 24.18530273 C-101.02029159 24.18522194 -97.54413425 24.19210347 -94.06787109 24.20581055 C-48.16283687 24.93008236 -48.16283687 24.93008236 -3 18 C-2.92652344 17.05640625 -2.92652344 17.05640625 -2.8515625 16.09375 C-2.36564801 10.53086686 -1.49446374 5.38006948 0 0 Z " fill="#880F10" transform="translate(666,653)"/>
<path d="M0 0 C0.80179688 0.58652344 1.60359375 1.17304688 2.4296875 1.77734375 C3.08710937 2.25042969 3.74453125 2.72351563 4.421875 3.2109375 C11.93125793 9.10163122 16.85406741 16.47046948 18.23828125 25.94140625 C18.30144531 26.54726562 18.36460937 27.153125 18.4296875 27.77734375 C19.0896875 27.77734375 19.7496875 27.77734375 20.4296875 27.77734375 C23.40999904 36.71827837 22.83529254 49.81938782 19.3046875 58.46484375 C18.39502796 60.26116582 17.43780077 62.03436896 16.4296875 63.77734375 C15.96046875 64.65519531 15.49125 65.53304687 15.0078125 66.4375 C8.33741235 78.32587447 -0.87991206 87.73925195 -14.25952148 91.75463867 C-27.2447972 95.15127585 -42.17390411 96.06811424 -54.171875 89.3125 C-56.41871255 87.88996663 -58.56088611 86.51981736 -60.5703125 84.77734375 C-60.5703125 84.11734375 -60.5703125 83.45734375 -60.5703125 82.77734375 C-61.44236328 82.64779297 -61.44236328 82.64779297 -62.33203125 82.515625 C-69.56235105 80.13075512 -74.61478214 70.15375695 -78.09375 63.87890625 C-83.27690216 52.9915443 -84.52093755 40.89354708 -80.6953125 29.40234375 C-79.98750493 27.52714521 -79.27923818 25.65211987 -78.5703125 23.77734375 C-78.1371875 21.95203125 -78.1371875 21.95203125 -77.6953125 20.08984375 C-74.29282117 10.07139705 -66.18615879 1.80244687 -57.24609375 -3.63671875 C-55.04925662 -4.67006045 -52.87889898 -5.47424657 -50.5703125 -6.22265625 C-49.78785156 -6.51785156 -49.00539063 -6.81304687 -48.19921875 -7.1171875 C-31.7708051 -12.59332538 -14.13709138 -9.69107859 0 0 Z " fill="#FCFCFC" transform="translate(766.5703125,214.22265625)"/>
<path d="M0 0 C2.04190981 0.14238837 4.08352045 0.28907028 6.125 0.4375 C7.83042969 0.55931641 7.83042969 0.55931641 9.5703125 0.68359375 C12.7540478 0.97730965 15.85510907 1.43124313 19 2 C18.38076246 8.62988018 17.23392528 14.95156663 15.75 21.4375 C13.8633305 29.89313464 12.11497179 38.3632992 10.5 46.875 C8.89703484 55.32165774 7.26003408 63.75932106 5.5625 72.1875 C5.14818973 74.26036716 4.73413233 76.33328488 4.3203125 78.40625 C3.63959004 81.81502714 2.95461691 85.22277883 2.26074219 88.62890625 C-1.61902032 107.69742133 -4.67776964 126.68629777 -7 146 C-7.66 146 -8.32 146 -9 146 C-9.08089542 148.77141717 -9.14044062 151.54047819 -9.1875 154.3125 C-9.21263672 155.09818359 -9.23777344 155.88386719 -9.26367188 156.69335938 C-9.27333984 157.45068359 -9.28300781 158.20800781 -9.29296875 158.98828125 C-9.3086792 159.68477783 -9.32438965 160.38127441 -9.34057617 161.09887695 C-8.89654992 163.57746651 -7.91981387 164.42753056 -6 166 C6.22635207 172.07269142 21.47184478 171.28467675 34.7734375 171.1953125 C36.43494494 171.19157148 38.09645463 171.18872968 39.75796509 171.18673706 C44.08152613 171.17918617 48.40494775 171.15961367 52.72845459 171.1373291 C57.16009639 171.11668401 61.59176123 171.10769589 66.0234375 171.09765625 C74.68235487 171.07635759 83.34115998 171.04232814 92 171 C92.06598634 172.60491571 92.11317104 174.21061232 92.15234375 175.81640625 C92.18062256 176.71045166 92.20890137 177.60449707 92.23803711 178.52563477 C92 181 92 181 89.5625 183.9375 C83.11888973 188.24313793 75.05065913 189.61053608 67.51171875 190.671875 C66.61289474 190.79842468 65.71407074 190.92497437 64.78800964 191.05535889 C54.55344324 192.36317807 44.34479994 192.38131284 34.04223633 192.28125 C30.80473196 192.24992484 27.56771978 192.24023631 24.33007812 192.234375 C14.8658153 192.19965657 5.41322639 192.06481793 -4.0390625 191.56640625 C-5.08086922 191.51296051 -5.08086922 191.51296051 -6.14372253 191.45843506 C-15.51710505 190.89222723 -26.48572613 190.08298361 -34 184 C-35.51719027 179.56929442 -34.69780168 175.33201836 -34.00390625 170.8125 C-33.89151108 170.03237549 -33.77911591 169.25225098 -33.66331482 168.44848633 C-33.30427634 165.96442892 -32.9340613 163.48221247 -32.5625 161 C-32.19620635 158.51758389 -31.8323567 156.03485624 -31.47239685 153.55151367 C-31.24832994 152.00941256 -31.02037208 150.46787032 -30.78797913 148.92700195 C-30.24903776 145.25397509 -29.86820632 141.71393675 -30 138 C-29.34 138 -28.68 138 -28 138 C-28.05027344 136.97777344 -28.10054688 135.95554687 -28.15234375 134.90234375 C-28.1509007 128.35524364 -26.74999968 121.97761533 -25.5625 115.5625 C-25.33240234 114.27150391 -25.10230469 112.98050781 -24.86523438 111.65039062 C-23.13686957 102.13686957 -23.13686957 102.13686957 -22 101 C-21.72852669 99.66044714 -21.51006376 98.3100266 -21.31640625 96.95703125 C-21.19330078 96.13009766 -21.07019531 95.30316406 -20.94335938 94.45117188 C-20.69229436 92.71174193 -20.44226988 90.97216143 -20.19335938 89.23242188 C-19.50339477 84.61001654 -18.55499811 80.42381095 -17 76 C-16.6683311 74.21530545 -16.37738797 72.42262043 -16.125 70.625 C-15.3015848 65.43308431 -14.13629939 60.41554782 -12.81298828 55.33056641 C-10.83808091 47.59950493 -9.18479867 39.79804538 -7.5 32 C-5.18271223 21.28462022 -2.80696376 10.60021097 0 0 Z " fill="#C61314" transform="translate(289,579)"/>
<path d="M0 0 C0.35009148 7.31407342 -0.81357551 14.36096691 -1.97143555 21.5612793 C-2.30873286 23.66401537 -2.63458773 25.76828656 -2.95898438 27.87304688 C-4.11162672 35.23135882 -5.51055241 42.4795466 -7.25 49.72485352 C-8.03743411 53.16346958 -8.69258237 56.60756768 -9.32421875 60.078125 C-11.56415667 72.3529658 -14.22977952 84.54382802 -16.8125 96.75 C-17.3263254 99.18616554 -17.83999806 101.6223633 -18.35351562 104.05859375 C-19.6373171 110.14470811 -20.92588701 116.2297975 -22.21759033 122.3142395 C-22.74561529 124.80164936 -23.2730677 127.28918081 -23.79998779 129.77682495 C-29.31205922 155.78309293 -29.31205922 155.78309293 -32.5 168.5625 C-35.12885699 179.25079235 -37.59383515 189.96367274 -39.87109375 200.73266602 C-41.274887 207.23286127 -43.03781107 213.52286167 -45.04321289 219.86230469 C-46.4530627 224.48577745 -47.55297165 229.16371753 -48.625 233.875 C-49.95057581 239.63034815 -51.31817331 245.33733582 -53 251 C-63.14252281 251.78827897 -72.80686675 250.4741149 -82.8125 248.8125 C-84.05153076 248.6163208 -85.29056152 248.4201416 -86.56713867 248.21801758 C-94.11723553 246.89881426 -100.38428681 244.89750343 -107 241 C-106.66064453 239.10107422 -106.66064453 239.10107422 -106 237 C-101.68796956 234.28695957 -97.04649475 233.01453501 -92.125 231.875 C-91.39482666 231.70323242 -90.66465332 231.53146484 -89.91235352 231.35449219 C-82.32032496 229.67660582 -74.75399434 229.20872125 -67 229 C-66.88527344 228.07316406 -66.77054687 227.14632812 -66.65234375 226.19140625 C-65.91557501 221.04438385 -64.72448757 216.00213972 -63.5625 210.9375 C-63.34529297 209.97005859 -63.12808594 209.00261719 -62.90429688 208.00585938 C-62.05278351 204.2699404 -61.21287274 200.61621055 -59.9609375 196.9921875 C-58.2224266 191.5787755 -57.51430547 185.91878492 -56.58789062 180.31835938 C-55.67651398 175.04254158 -54.47941568 170.12517906 -52.69360352 165.0793457 C-51.64621095 161.93938002 -51.04512012 158.74989963 -50.4375 155.5 C-49.70541762 151.6286491 -48.96174808 147.76699974 -48.09985352 143.92260742 C-47.83477745 142.73560745 -47.83477745 142.73560745 -47.56434631 141.52462769 C-47.37811203 140.69150055 -47.19187775 139.85837341 -47 139 C-43.57362432 123.60813577 -40.42363289 108.1823891 -37.5 92.6875 C-36.71559968 88.54542949 -35.93004771 84.40357771 -35.14453125 80.26171875 C-34.86202263 78.76921097 -34.86202263 78.76921097 -34.57380676 77.24655151 C-33.56235159 71.91438025 -32.52736224 66.5886161 -31.44921875 61.26953125 C-28.83118852 48.30390924 -26.86661058 35.35717942 -25.3425293 22.22265625 C-25.19468994 20.97871094 -25.04685059 19.73476563 -24.89453125 18.453125 C-24.76925049 17.35129883 -24.64396973 16.24947266 -24.51489258 15.11425781 C-23.72423724 10.33208643 -23.12185773 6.96159234 -19.375 3.75 C-12.9290205 0.40764026 -7.19556749 -0.25698455 0 0 Z " fill="#C61315" transform="translate(370,294)"/>
<path d="M0 0 C4.52133793 0.68948314 9.04197368 1.38334467 13.56201172 2.08129883 C15.10023728 2.31818621 16.63864878 2.55386938 18.17724609 2.78833008 C20.38689192 3.12526189 22.59583603 3.46649801 24.8046875 3.80859375 C25.49432587 3.91280136 26.18396423 4.01700897 26.89450073 4.12437439 C31.77225659 4.88612829 31.77225659 4.88612829 34 6 C35.11365879 8.65141495 36.12002027 11.28171674 37.08203125 13.98828125 C37.5261158 15.20864326 37.5261158 15.20864326 37.97917175 16.45365906 C38.93041115 19.07086805 39.87195485 21.69143082 40.8125 24.3125 C45.91114348 42.35915024 45.91114348 42.35915024 55 58 C73.43815236 66.19473438 96.08779925 64.16322664 115.79101562 64.13037109 C119.62373797 64.12500177 123.45634366 64.13034885 127.2890625 64.13671875 C129.76822942 64.13605801 132.24739627 64.13477692 134.7265625 64.1328125 C135.85091705 64.13483673 136.97527161 64.13686096 138.13369751 64.13894653 C146.12414031 64.11580683 154.03744225 63.65667395 162 63 C162.41043474 67.76104295 162.54331237 70.05825855 160.125 74.25 C150.34695567 84.21712254 131.63269802 84.16631157 118.66159058 84.3351593 C112.12630401 84.38994231 105.59167438 84.36220763 99.05639648 84.3225708 C96.08120505 84.30921789 93.10616539 84.31439674 90.1309576 84.31943035 C38.28767064 84.38591047 38.28767064 84.38591047 28.3828125 76.75390625 C26.46095826 74.31630017 25.61353417 71.79032756 24.5625 68.875 C23.1311847 64.9967355 21.68382182 61.18452911 19.9375 57.4375 C17.98590507 53.15809907 16.53735766 48.76813078 15.125 44.28515625 C14.22284803 41.6507472 13.2499166 39.10098983 12.203125 36.5234375 C9.5396337 29.93450855 7.14597364 23.2524206 4.75 16.5625 C4.28650743 15.2844874 3.82296605 14.0064925 3.359375 12.72851562 C2.92625 11.52001953 2.493125 10.31152344 2.046875 9.06640625 C1.65338867 7.97271729 1.25990234 6.87902832 0.85449219 5.75219727 C0 3 0 3 0 0 Z " fill="#C71315" transform="translate(467,685)"/>
<path d="M0 0 C26.52703399 5.02136972 26.52703399 5.02136972 33 14 C33.375 17.4375 33.375 17.4375 32 21 C17.48211594 37.03348734 -17.24828815 36.77336572 -37 38.6875 C-38.21905029 38.80697998 -39.43810059 38.92645996 -40.6940918 39.04956055 C-61.85852783 40.95578152 -83.13708521 41.23878814 -104.375 41.25 C-105.54466309 41.25067474 -106.71432617 41.25134949 -107.91943359 41.25204468 C-203.06594598 41.16555667 -203.06594598 41.16555667 -226.1875 21.5625 C-228 19 -228 19 -228.3125 16.0625 C-225.91443456 10.46701398 -220.63656286 7.60841534 -215.25 5.125 C-212 4 -212 4 -208 4 C-206.4296875 6.265625 -206.4296875 6.265625 -204.875 9.25 C-201.82857379 14.31005548 -199.48964601 16.4655737 -193.91796875 18.31640625 C-186.00124014 20.17106155 -178.23215211 21.41143681 -170.125 22.0625 C-168.79855469 22.17948242 -168.79855469 22.17948242 -167.4453125 22.29882812 C-164.29848753 22.56324883 -161.15068133 22.78624151 -158 23 C-156.09250977 23.13571411 -156.09250977 23.13571411 -154.14648438 23.27416992 C-137.6193799 24.33099308 -121.0496303 24.18732132 -104.49658203 24.18530273 C-101.02029159 24.18522194 -97.54413425 24.19210347 -94.06787109 24.20581055 C-48.16283687 24.93008236 -48.16283687 24.93008236 -3 18 C-2.92652344 17.05640625 -2.92652344 17.05640625 -2.8515625 16.09375 C-2.36564801 10.53086686 -1.49446374 5.38006948 0 0 Z " fill="#640F87" transform="translate(666,653)"/>
<path d="M0 0 C0.63710776 10.1441713 -1.30055762 19.76640121 -3.125 29.6875 C-3.44653757 31.47221277 -3.76741078 33.25704536 -4.08764648 35.04199219 C-4.89466286 39.52417099 -5.71396588 44.00399738 -6.53790283 48.48309326 C-6.96941763 50.83342685 -7.39744565 53.18435749 -7.82373047 55.53564453 C-12.25772813 79.97493585 -17.46704195 104.22079706 -22.8840332 128.45874023 C-24.36347836 135.08855591 -25.80139315 141.72506786 -27.1875 148.375 C-31.252048 167.7992825 -31.252048 167.7992825 -34.0625 176.5625 C-35.73213419 181.79275558 -36.69786244 186.89809258 -37.49609375 192.3203125 C-38.16605253 195.88303902 -39.38387599 198.76775198 -41 202 C-44.29197997 197.06203004 -45.46896823 191.34902204 -47.125 185.6875 C-47.49753906 184.48287109 -47.87007812 183.27824219 -48.25390625 182.03710938 C-51.72066139 170.17013986 -52.0932724 159.17425729 -49.0625 147.1875 C-48.88009766 146.40052734 -48.69769531 145.61355469 -48.50976562 144.80273438 C-47.17125496 139.17125496 -47.17125496 139.17125496 -46 138 C-45.45644645 134.80719384 -45.03409014 131.60360399 -44.59765625 128.39453125 C-44 125 -44 125 -43.078125 122.28125 C-41.50818401 117.50316872 -40.6420879 112.62036248 -39.6875 107.6875 C-39.25025905 105.45828251 -38.8127508 103.22911743 -38.375 101 C-38.15070312 99.85273438 -37.92640625 98.70546875 -37.6953125 97.5234375 C-36.99838361 93.99180909 -36.28353079 90.46428105 -35.5625 86.9375 C-35.33216064 85.80610596 -35.10182129 84.67471191 -34.86450195 83.5090332 C-34.42035598 81.32994704 -33.97366453 79.15137783 -33.52416992 76.97338867 C-33.32412354 75.9857251 -33.12407715 74.99806152 -32.91796875 73.98046875 C-32.74031982 73.11317139 -32.5626709 72.24587402 -32.37963867 71.35229492 C-31.89378061 68.73897183 -31.89378061 68.73897183 -32 65 C-33.485 65.495 -33.485 65.495 -35 66 C-40.26324523 66.70473962 -43.79614248 66.91493172 -48.125 63.625 C-50.91442517 59.43090001 -50.96354182 54.82573859 -50 50 C-48.125 46.875 -48.125 46.875 -45 45 C-41.62212398 44.6132203 -38.38220638 44.7044674 -35 45 C-35 45.66 -35 46.32 -35 47 C-34.21625 47.309375 -33.4325 47.61875 -32.625 47.9375 C-30 49 -30 49 -28 50 C-27.95391602 49.31284912 -27.90783203 48.62569824 -27.86035156 47.91772461 C-27.27640225 40.07009468 -26.30690901 32.32218066 -25.06298828 24.55200195 C-24.85257372 23.21450718 -24.65121555 21.87555925 -24.45849609 20.53540039 C-24.17459359 18.56359016 -23.86107526 16.59611606 -23.546875 14.62890625 C-23.36995117 13.47463135 -23.19302734 12.32035645 -23.01074219 11.13110352 C-21.5718586 6.6736924 -18.95116634 4.02637655 -14.82421875 1.85546875 C-9.68485921 0.24883167 -5.38564462 -0.29376243 0 0 Z " fill="#C61415" transform="translate(616,296)"/>
<path d="M0 0 C10.23 0 20.46 0 31 0 C33.041875 6.3421875 33.041875 6.3421875 35.125 12.8125 C36.80267608 18.0123181 38.48277976 23.21134911 40.16320801 28.41027832 C41.04782746 31.14801744 41.93164034 33.88601624 42.81542969 36.62402344 C44.39356898 41.51173737 45.97545291 46.3982278 47.55950928 51.2840271 C48.18583218 53.21760446 48.81103824 55.15154395 49.43511963 57.08584595 C50.31833563 59.82253389 51.20557302 62.5578875 52.09375 65.29296875 C52.35795746 66.11461517 52.62216492 66.9362616 52.89437866 67.7828064 C53.14257355 68.54437042 53.39076843 69.30593445 53.64648438 70.09057617 C53.8605896 70.75208176 54.07469482 71.41358734 54.29528809 72.09513855 C54.96955785 74.05748311 54.96955785 74.05748311 56.08459473 75.99433899 C57 78 57 78 57 82 C50.91360299 82.43474264 45.62945575 81.6399135 39.75 80.1875 C39.06486328 80.02217773 38.37972656 79.85685547 37.67382812 79.68652344 C29.49817933 77.56883099 25.98196322 74.32304226 21.68652344 67.2421875 C18.740287 61.57831665 16.94713613 55.59652387 15.125 49.5 C14.70696479 48.14470552 14.28709217 46.78997656 13.86547852 45.43579102 C13.21850377 43.35775651 12.57247922 41.27950373 11.93232727 39.19935608 C9.38228189 30.92827501 6.58221441 22.74331249 3.77978516 14.5546875 C3.42835449 13.51441406 3.07692383 12.47414063 2.71484375 11.40234375 C2.40667725 10.49991943 2.09851074 9.59749512 1.78100586 8.66772461 C1 6 1 6 0 0 Z " fill="#C71315" transform="translate(437,593)"/>
<path d="M0 0 C6.1463525 3.6017984 10.75566861 6.89028414 13.2421875 13.7578125 C14.31480183 21.73932498 13.75770997 27.50057358 8.9453125 34.05078125 C7.2421875 35.7578125 7.2421875 35.7578125 5.1015625 36.80859375 C2.88280075 37.66736439 2.88280075 37.66736439 2.2421875 40.7578125 C-3.31213026 42.91434219 -11.11642802 42.71624668 -16.6328125 40.5703125 C-19.94933341 38.64673037 -22.28415643 36.68122422 -24.7578125 33.7578125 C-24.7578125 33.0978125 -24.7578125 32.4378125 -24.7578125 31.7578125 C-25.3971875 31.5309375 -26.0365625 31.3040625 -26.6953125 31.0703125 C-28.7578125 29.7578125 -28.7578125 29.7578125 -29.5078125 27.6953125 C-30.17759029 19.82542348 -30.50379378 13.4233499 -25.24609375 6.875 C-18.53809593 -0.33044485 -9.47671917 -4.26855056 0 0 Z " fill="#F5F5F5" transform="translate(215.7578125,245.2421875)"/>
<path d="M0 0 C1.56427734 0.00966797 1.56427734 0.00966797 3.16015625 0.01953125 C5.9375 0.1875 5.9375 0.1875 8.9375 1.1875 C8.9375 1.8475 8.9375 2.5075 8.9375 3.1875 C9.618125 3.3525 10.29875 3.5175 11 3.6875 C15.55239181 6.0121256 19.88580962 10.22256497 21.62890625 15.13671875 C22.50044955 20.92862045 22.75181294 26.91066324 19.9375 32.1875 C19.2775 32.1875 18.6175 32.1875 17.9375 32.1875 C17.69902344 32.94417969 17.46054687 33.70085938 17.21484375 34.48046875 C14.95362771 39.27258715 10.70774598 41.23248115 5.9375 43.1875 C-0.54088549 44.28493142 -6.38965852 43.63569776 -12.0625 40.1875 C-17.61606655 34.98841643 -21.17010059 29.53853125 -21.5 21.8125 C-21.29535086 15.52806589 -19.76045113 10.99812659 -15.37890625 6.43359375 C-10.39928945 1.98941962 -6.81606144 -0.0929079 0 0 Z " fill="#F7F7F7" transform="translate(854.0625,791.8125)"/>
<path d="M0 0 C3.91076919 2.7108741 6.2417521 6.09967358 8.0625 10.4296875 C8.79168508 16.44122495 9.06068219 22.60969844 5.54296875 27.765625 C-3.65498849 38.10422602 -3.65498849 38.10422602 -9.6953125 38.703125 C-17.16245514 38.92835204 -22.26571532 38.53429371 -27.9375 33.4296875 C-30.9375 30.1484375 -30.9375 30.1484375 -30.9375 27.4296875 C-31.5975 27.4296875 -32.2575 27.4296875 -32.9375 27.4296875 C-35.41490716 21.39100755 -36.27457014 15.77003345 -33.81640625 9.62890625 C-32.59381073 7.18025176 -31.31847184 4.79213575 -29.9375 2.4296875 C-29.2775 2.4296875 -28.6175 2.4296875 -27.9375 2.4296875 C-27.9375 1.7696875 -27.9375 1.1096875 -27.9375 0.4296875 C-20.23306648 -6.449271 -8.36550402 -4.74581478 0 0 Z " fill="#F9F9F9" transform="translate(618.9375,251.5703125)"/>
<path d="M0 0 C5.59576045 3.08731611 10.07568176 6.73705616 12.10546875 12.9375 C13.19044355 19.58191934 13.09920066 25.22065664 9.41796875 31 C6.00904994 35.37945805 2.26405889 38.79036195 -2.89453125 40.9375 C-9.71091682 41.67778447 -16.04444069 41.68155796 -21.89453125 37.9375 C-28.48910888 30.8686024 -30.64430994 24.1727035 -30.54296875 14.53515625 C-29.44038817 8.41782665 -25.71730216 4.64850337 -20.89453125 0.9375 C-14.515669 -2.32418361 -6.68371275 -2.45340063 0 0 Z " fill="#F9F9F9" transform="translate(835.89453125,301.0625)"/>
<path d="M0 0 C3.7236684 2.78704015 6.1413573 6.17119254 7.91015625 10.4296875 C8.80713545 17.56775358 8.80464427 23.87519083 4.40625 29.78125 C0.64433631 33.92623061 -3.61286516 37.96729138 -9.3515625 38.73046875 C-15.2695055 38.75905785 -20.87042402 38.45355782 -26.08984375 35.4296875 C-30.13068052 31.35423971 -33.57582755 26.32102862 -34.58984375 20.6171875 C-34.04351031 17.13431181 -33.55334305 16.60374165 -31.21484375 14.1796875 C-28.4098096 11.25042107 -27.61524608 9.18440831 -27.02734375 5.1796875 C-26.3473581 0.65331838 -26.3473581 0.65331838 -23.71484375 -1.6328125 C-15.23577902 -4.66104991 -7.79695044 -4.86793731 0 0 Z " fill="#FAFAFA" transform="translate(846.08984375,527.5703125)"/>
<path d="M0 0 C3.42677212 0.23207246 6.85234291 0.47333655 10.27734375 0.73046875 C12.3928355 0.88363657 14.50984327 1.02196947 16.62890625 1.11328125 C25.10327445 1.61514739 34.88884026 4.25922684 42 9 C41.79418945 10.87011719 41.79418945 10.87011719 41 13 C33.71739118 17.20870622 24.47905002 18.30644085 16.3125 19.75 C15.14138672 19.97042969 13.97027344 20.19085937 12.76367188 20.41796875 C6.74955142 21.51021172 1.11183608 22.27130222 -5 22 C-3.77048326 14.52164523 -2.11170763 7.2783523 0 0 Z " fill="#030003" transform="translate(696,523)"/>
<path d="M0 0 C-1.0586127 6.75710231 -2.22125844 13.39324562 -4 20 C-16.1670468 19.51197184 -28.60584052 19.01001453 -39 12 C-38.875 10.1875 -38.875 10.1875 -38 8 C-33.39784626 5.2656957 -28.78695094 4.02312076 -23.625 2.875 C-22.90828125 2.70613281 -22.1915625 2.53726563 -21.453125 2.36328125 C-14.3131048 0.72648962 -7.33313454 -0.15277364 0 0 Z " fill="#050006" transform="translate(302,523)"/>
<path d="M0 0 C0 0.66 0 1.32 0 2 C1.2065625 2.433125 1.2065625 2.433125 2.4375 2.875 C5 4 5 4 6 6 C6.07033769 7.87379605 6.0843022 9.75001102 6.0625 11.625 C6.05347656 12.62789062 6.04445312 13.63078125 6.03515625 14.6640625 C6.02355469 15.43492187 6.01195312 16.20578125 6 17 C0.63804956 20.65068966 -3.49495982 22.11862373 -10 21 C-13.0625 19.75 -13.0625 19.75 -15 17 C-15.95685309 11.40913112 -15.99046833 6.71681178 -13.125 1.75 C-8.72783423 -0.71241283 -4.92847709 -0.43064363 0 0 Z " fill="#E9E9E9" transform="translate(145,516)"/>
<path d="M0 0 C2.9375 2.4375 2.9375 2.4375 5 5 C5.33 5.33 5.66 5.66 6 6 C6.41344616 10.87866475 6.46735197 13.12760966 4.125 17.5 C3.42375 18.325 2.7225 19.15 2 20 C1.34 20 0.68 20 0 20 C0 20.66 0 21.32 0 22 C-7.7869934 22.91611687 -7.7869934 22.91611687 -10.67578125 20.734375 C-13.73157038 17.02055458 -15.24821497 14.42789512 -14.9375 9.6875 C-14.45114007 5.91821055 -14.00784707 5.0093782 -11.4375 1.9375 C-6.94362213 -0.59541298 -5.08826267 -0.80766074 0 0 Z " fill="#EDEDED" transform="translate(739,124)"/>
<path d="M0 0 C3.0609697 1.74092651 5.40003304 3.80006608 7 7 C7.08362715 10.0942044 6.79361144 13.00664679 6 16 C2.77824351 19.30436563 0.27029018 20.8801613 -4.3125 21.3125 C-8.55801703 20.95271042 -10.06972861 20.01906749 -13 17 C-13 16.34 -13 15.68 -13 15 C-13.66 15 -14.32 15 -15 15 C-15.46204423 11.14963138 -15.83325153 7.58030462 -13.98046875 4.06640625 C-10.07006575 -0.42570959 -5.74044205 -1.40435815 0 0 Z " fill="#F4F4F4" transform="translate(180,714)"/>
<path d="M0 0 C2.5625 1.875 2.5625 1.875 4 4 C4 4.66 4 5.32 4 6 C4.66 6 5.32 6 6 6 C6 9.63 6 13.26 6 17 C0.78782964 20.12730222 -2.90752579 21.80191256 -9.01171875 20.7265625 C-11 20 -11 20 -13.5625 17.5 C-15.35063973 13.14626848 -16.0978338 9.62962473 -15 5 C-10.88495341 -0.17018674 -6.48079536 -1.36502521 0 0 Z " fill="#F1F1F1" transform="translate(271,410)"/>
<path d="M0 0 C3.55337736 3.12666174 5.69763677 6.48818383 6.625 11.125 C5.82877194 14.78764906 4.34668328 17.10115595 2 20 C1.34 20 0.68 20 0 20 C0 20.66 0 21.32 0 22 C-7.7869934 22.91611687 -7.7869934 22.91611687 -10.67578125 20.734375 C-13.79379118 16.9449352 -15.23643007 14.4402057 -14.8125 9.625 C-14.41219919 6.39140125 -14.12786514 5.17048685 -12.125 2.5 C-8.2025913 -0.26875908 -4.68884089 -0.71524691 0 0 Z " fill="#EFEFEF" transform="translate(432,712)"/>
<path d="M0 0 C3.20972989 2.3804901 4.59728261 5.22133152 5.46875 9.0703125 C5.77247191 13.06425556 5.13359257 14.83476708 2.625 17.9375 C-1.468024 21.15344743 -3.77786753 21.35404288 -9 21 C-12.5386994 19.34860695 -13.81070153 18.28394771 -16 15 C-16.75621971 11.18254473 -16.81848483 7.58541156 -15.0078125 4.078125 C-10.99795665 -0.67933109 -5.92070191 -1.62548389 0 0 Z " fill="#EEEEEE" transform="translate(385,229)"/>
<path d="M0 0 C2.81188451 1.51272268 4.508859 3.17235484 6 6 C6.47524509 9.39749684 6.36329822 12.59576111 6 16 C5.34 16 4.68 16 4 16 C3.67 16.99 3.34 17.98 3 19 C-0.00698426 21.28530804 -3.31773667 21.46771947 -7.03125 21.3984375 C-10.35497067 20.72577975 -11.94818657 18.54922275 -14 16 C-14.33 15.67 -14.66 15.34 -15 15 C-15.38443027 10.00240648 -15.10625602 6.99375774 -12 3 C-8.66569887 -0.5812864 -4.64806376 -1.05961607 0 0 Z " fill="#F3F3F3" transform="translate(438,809)"/>
<path d="M0 0 C3.14233082 0.6899114 4.52132369 1.82779557 6.27734375 4.5 C7.51405742 8.21014101 7.84102978 11.64438758 7.27734375 15.5 C5.48370464 18.3100346 4.2585344 20.00940468 1.27734375 21.5 C-1.85895483 22.10844192 -4.60054587 22.22692352 -7.72265625 21.5 C-11.40635587 18.48878104 -13.35018643 15.02091841 -14.47265625 10.4375 C-12.47825213 2.62608386 -7.96461497 -0.5748895 0 0 Z " fill="#EFEFEF" transform="translate(916.72265625,650.5)"/>
<path d="M0 0 C5.68421053 3.05263158 5.68421053 3.05263158 7 7 C7.6914329 14.14480667 7.6914329 14.14480667 4.625 17.9375 C0.96658734 20.81196709 -1.31624192 21.38890629 -6.03125 21.36328125 C-8 21 -8 21 -10.375 18.5625 C-10.91125 17.716875 -11.4475 16.87125 -12 16 C-12.66 15.67 -13.32 15.34 -14 15 C-14.66964286 7.23214286 -14.66964286 7.23214286 -11.625 3.5625 C-7.68567941 -0.28302724 -5.48402115 -0.45700176 0 0 Z " fill="#F0F0F0" transform="translate(739,975)"/>
<path d="M0 0 C0 0.66 0 1.32 0 2 C0.639375 2.28875 1.27875 2.5775 1.9375 2.875 C4 4 4 4 5 6 C5.61493604 10.96341236 5.73594779 14.77342035 3.125 19.125 C-1.28605688 21.77163413 -4.98692258 22.12588788 -10 21 C-13.56423351 18.29118254 -14.64082021 16.87671442 -15.46875 12.55078125 C-15.72939634 8.19147122 -15.3957196 5.65953267 -13.125 1.875 C-8.73773073 -0.75736156 -4.99183607 -0.43617985 0 0 Z " fill="#EFEFEF" transform="translate(581,341)"/>
<path d="M0 0 C3.77380117 1.85129869 5.55035181 3.10070361 7.4375 6.875 C8.33389825 11.85499029 7.90742148 14.65350362 5.0625 18.875 C1.2780204 21.50096544 -1.16169111 21.71834329 -5.6875 21.49609375 C-8 21 -8 21 -10.5625 18.6875 C-12.91203771 14.29488602 -13.58896023 10.9640934 -13 6 C-9.78963506 0.7487602 -6.17457681 -1.102603 0 0 Z " fill="#F5F5F5" transform="translate(556,806)"/>
<path d="M0 0 C3.5793379 0.89483448 5.44598226 2.88368915 8 5.5 C9.53214888 8.56429776 9.22938548 11.1165642 9 14.5 C7.74544028 17.32275936 6.71615278 18.96288541 4.25 20.8125 C0.9789382 21.81199111 -1.59742588 21.8581657 -5 21.5 C-8.37202113 19.40185352 -10.91984861 17.38854502 -12 13.5 C-11.92371069 8.69377359 -11.66565014 6.46821838 -8.9375 2.5 C-5.8396683 0.39083799 -3.76128294 -0.22795654 0 0 Z " fill="#F3F3F3" transform="translate(774,624.5)"/>
<path d="M0 0 C2.92810762 1.81651121 5.43591638 3.87183276 7 7 C7.70153846 14.13230769 7.70153846 14.13230769 4.625 17.9375 C1.02832407 20.76345966 -1.30087031 21.48782409 -5.95703125 21.39453125 C-8.84182318 20.83742994 -10.4836087 19.36020117 -12.15234375 16.984375 C-13.82793016 13.06180406 -13.7823377 9.14638983 -13 5 C-9.67292699 0.29620712 -5.58977452 -0.65762053 0 0 Z " fill="#F4F4F4" transform="translate(205,903)"/>
<path d="M0 0 C0.66 0 1.32 0 2 0 C3.00410968 3.62387457 4.00258908 7.24927651 5 10.875 C5.28617187 11.90753906 5.57234375 12.94007813 5.8671875 14.00390625 C6.13789063 14.99003906 6.40859375 15.97617187 6.6875 16.9921875 C7.06455078 18.35899658 7.06455078 18.35899658 7.44921875 19.75341797 C8 22 8 22 8 24 C3.71 24 -0.58 24 -5 24 C-3.85133834 15.78265118 -2.38853942 7.94587448 0 0 Z " fill="#C31314" transform="translate(447,528)"/>
<path d="M0 0 C0 0.33 0 0.66 0 1 C-2.64 1 -5.28 1 -8 1 C-8.4021875 1.86625 -8.4021875 1.86625 -8.8125 2.75 C-10 5 -10 5 -11.5625 6.875 C-13.36384129 9.53785234 -13.64072241 11.83835725 -14 15 C-14.33 15 -14.66 15 -15 15 C-15.46204423 11.14963138 -15.83325153 7.58030462 -13.98046875 4.06640625 C-9.91896459 -0.59928861 -5.90272908 -0.70832749 0 0 Z " fill="#B3B3B3" transform="translate(180,714)"/>
<path d="M0 0 C1.32 0.66 2.64 1.32 4 2 C3.38125 2.0825 2.7625 2.165 2.125 2.25 C-0.16669871 2.79326091 -0.16669871 2.79326091 -1.0625 4.9375 C-1.371875 5.618125 -1.68125 6.29875 -2 7 C-2.99 7.66 -3.98 8.32 -5 9 C-6.19232613 11.05003955 -6.19232613 11.05003955 -7 13 C-7.33 12.34 -7.66 11.68 -8 11 C-8.66 10.67 -9.32 10.34 -10 10 C-9.36191406 9.44570313 -8.72382812 8.89140625 -8.06640625 8.3203125 C-7.24011719 7.59585937 -6.41382813 6.87140625 -5.5625 6.125 C-4.73878906 5.40570313 -3.91507813 4.68640625 -3.06640625 3.9453125 C-0.94017845 2.16761255 -0.94017845 2.16761255 0 0 Z " fill="#722828" transform="translate(624,278)"/>
<path d="M0 0 C0.66 0.33 1.32 0.66 2 1 C0.71451591 2.33929505 -0.57858155 3.67128643 -1.875 5 C-2.59429688 5.7425 -3.31359375 6.485 -4.0546875 7.25 C-6 9 -6 9 -8 9 C-6.4169423 4.7257442 -3.49431596 2.73468206 0 0 Z " fill="#C3C3C3" transform="translate(844,794)"/>
<path d="M0 0 C-1.5830577 4.2742558 -4.50568404 6.26531794 -8 9 C-8 6 -8 6 -6.7578125 4.39453125 C-5.94957031 3.61142578 -5.94957031 3.61142578 -5.125 2.8125 C-4.59132813 2.28269531 -4.05765625 1.75289062 -3.5078125 1.20703125 C-2 0 -2 0 0 0 Z " fill="#BEBEBE" transform="translate(704,216)"/>
<path d="M0 0 C0.66 0.33 1.32 0.66 2 1 C-0.97 3.97 -3.94 6.94 -7 10 C-7.33 9.34 -7.66 8.68 -8 8 C-7.34 7.01 -6.68 6.02 -6 5 C-5.34 5 -4.68 5 -4 5 C-4 4.34 -4 3.68 -4 3 C-2 1.375 -2 1.375 0 0 Z " fill="#BEBEBE" transform="translate(595,249)"/>
<path d="M0 0 C0.66 0.33 1.32 0.66 2 1 C0.625 3 0.625 3 -1 5 C-1.66 5 -2.32 5 -3 5 C-3 7.64 -3 10.28 -3 13 C-3.33 13 -3.66 13 -4 13 C-4.63019694 4.80743982 -4.63019694 4.80743982 -2 1.4375 C-1.34 0.963125 -0.68 0.48875 0 0 Z " fill="#AEAEAE" transform="translate(260,411)"/>
<path d="M0 0 C-1.39332574 3.36720387 -2.9789286 4.9859524 -6 7 C-5.37162381 3.35541809 -4.14650034 0 0 0 Z " fill="#D8D8D8" transform="translate(430,810)"/>
</svg>
